<?xml version="1.0" encoding="utf-8"?>
<!-- Generator: Adobe Illustrator 19.0.0, SVG Export Plug-In . SVG Version: 6.00 Build 0)  -->
<svg version="1.1" id="Layer_1" xmlns="http://www.w3.org/2000/svg" xmlns:xlink="http://www.w3.org/1999/xlink" x="0px" y="0px"
	 viewBox="0 0 37 33" style="enable-background:new 0 0 37 33;" xml:space="preserve">
<style type="text/css">
	.st0{fill:#AC162C;}
</style>
<g>
	<path class="st0" d="M18.6,5.7C12.7,5.7,7.8,10.2,6.8,16h4.5c0.9-3.3,3.8-5.8,7.3-5.8c2.6,0,4.9,1.3,6.2,3.4l3.4-2.9
		C26,7.7,22.5,5.7,18.6,5.7z M11.3,20.2H6.8c1,5.9,5.8,10.3,11.7,10.3c4.2,0,7.8-2.2,9.9-5.6L25,22.3c-1.3,2.2-3.7,3.7-6.4,3.7
		C15.1,26,12.2,23.6,11.3,20.2z"/>
	<path d="M20.1,0.4v4.4c0.7,0.1,1.4,0.2,2,0.4V3.3c6,1.7,10.5,7.1,10.9,13.8H22.1v-4.7c-0.6-0.4-1.3-0.7-2-0.9v13.4
		c0.7-0.2,1.4-0.5,2-0.9v-4.7H33c-0.3,4.3-2.2,8.1-5.2,10.6l1.4,1.9c3.7-3.2,6.1-8.1,6.1-13.7C35.4,8.9,28.7,1.3,20.1,0.4z"/>
	<path d="M16.7,0.4C8.1,1.3,1.4,8.9,1.4,18.1c0,5.6,2.5,10.5,6.3,13.7L9,29.9c-3-2.6-4.9-6.4-5.2-10.7h10.9v4.5
		c0.6,0.5,1.3,0.8,2.1,1.1V11.5c-0.7,0.2-1.4,0.6-2.1,1.1v4.5H3.8C4.3,10.4,8.7,5,14.7,3.3v2c0.7-0.2,1.4-0.4,2.1-0.5V0.4z"/>
</g>
</svg>
